<?xml version="1.0" encoding="UTF-8"?>
<svg version="1.1" xmlns="http://www.w3.org/2000/svg" width="290" height="249">
<path d="M0 0 C1.53333984 0.01353516 1.53333984 0.01353516 3.09765625 0.02734375 C5.6068724 0.05079437 8.11596716 0.08666164 10.625 0.125 C10.625 6.395 10.625 12.665 10.625 19.125 C7.655 19.455 4.685 19.785 1.625 20.125 C-1.79852261 21.86788424 -3.80043622 22.96640132 -5.51820374 26.43025208 C-6.42178338 29.27214049 -6.63238487 31.51562052 -6.64624023 34.4909668 C-6.65642685 35.53943283 -6.66661346 36.58789886 -6.67710876 37.6681366 C-6.67924881 38.79214371 -6.68138885 39.91615082 -6.68359375 41.07421875 C-6.70876219 43.47330963 -6.73416008 45.87239812 -6.75976562 48.27148438 C-6.78844277 52.03897432 -6.81246963 55.80642247 -6.83129883 59.57397461 C-6.85306896 63.22011222 -6.89252583 66.86575466 -6.93359375 70.51171875 C-6.93370956 71.62560471 -6.93382538 72.73949066 -6.9339447 73.88713074 C-7.0555208 83.58701271 -8.21749268 92.14206603 -15.375 99.125 C-16.68928 99.82848441 -18.01998241 100.50359066 -19.375 101.125 C-18.83230469 101.50011719 -18.28960937 101.87523438 -17.73046875 102.26171875 C-12.70855405 105.85397125 -9.079397 108.59682679 -7.81745911 114.91760254 C-7.39599629 117.97279733 -7.24408204 120.86183194 -7.2331543 123.94335938 C-7.22611984 125.0647229 -7.21908539 126.18608643 -7.21183777 127.34143066 C-7.20767349 128.53844604 -7.20350922 129.73546143 -7.19921875 130.96875 C-7.17603107 133.5195396 -7.15191417 136.07032089 -7.12695312 138.62109375 C-7.0917835 142.63043129 -7.06076487 146.63945716 -7.04907227 150.64892578 C-7.03361048 154.52674252 -6.99342504 158.4036684 -6.94921875 162.28125 C-6.95112717 163.47826538 -6.95303558 164.67528076 -6.95500183 165.90856934 C-6.86221473 172.21797863 -6.75228007 176.39015083 -2.375 181.125 C0.72031099 182.6726555 3.9916763 182.56909451 7.41015625 182.84375 C9.625 183.125 9.625 183.125 10.625 184.125 C10.71131874 185.46767413 10.73206473 186.81474322 10.72265625 188.16015625 C10.71943359 188.96904297 10.71621094 189.77792969 10.71289062 190.61132812 C10.70032227 191.8865332 10.70032227 191.8865332 10.6875 193.1875 C10.68298828 194.04150391 10.67847656 194.89550781 10.67382812 195.77539062 C10.66200373 197.89195663 10.64406769 200.00848685 10.625 202.125 C6.95860752 202.24228126 3.2927048 202.31260891 -0.375 202.375 C-1.40496094 202.40851563 -2.43492188 202.44203125 -3.49609375 202.4765625 C-10.14558279 202.56126937 -14.77682962 201.77519613 -20.375 198.125 C-21.261875 197.5475 -22.14875 196.97 -23.0625 196.375 C-31.05844603 188.59516062 -32.5440255 179.48451524 -32.72840881 168.6872406 C-32.73682297 167.66509964 -32.74523712 166.64295868 -32.75390625 165.58984375 C-32.77090073 164.51174942 -32.7878952 163.43365509 -32.80540466 162.32289124 C-32.85816784 158.90281924 -32.89865265 155.48275602 -32.9375 152.0625 C-32.9816325 148.63873444 -33.02849563 145.21505527 -33.08030701 141.79139709 C-33.11190882 139.66893579 -33.13890413 137.54639918 -33.16053772 135.42381287 C-32.86854502 125.62081022 -32.86854502 125.62081022 -36.015625 116.734375 C-38.9960424 114.70137505 -41.59517966 114.08096407 -45.125 113.375 C-47.1875 112.9625 -49.25 112.55 -51.375 112.125 C-51.375 105.195 -51.375 98.265 -51.375 91.125 C-48.5596875 90.5371875 -48.5596875 90.5371875 -45.6875 89.9375 C-40.37742206 88.6162424 -37.58443045 87.55180062 -34.375 83.125 C-33.36756635 80.10269905 -33.23320408 78.02494824 -33.20141602 74.86254883 C-33.18792618 73.7874556 -33.17443634 72.71236237 -33.16053772 71.60469055 C-33.15009933 70.44221298 -33.13966095 69.27973541 -33.12890625 68.08203125 C-33.09595811 65.62174136 -33.06274663 63.16145499 -33.02929688 60.70117188 C-32.9819576 56.82155863 -32.93754522 52.94195864 -32.89819336 49.06225586 C-32.85834031 45.31869391 -32.80681695 41.57542829 -32.75390625 37.83203125 C-32.7454921 36.67967484 -32.73707794 35.52731842 -32.72840881 34.34004211 C-32.57989345 24.6051183 -31.2676373 16.15501707 -25.375 8.125 C-17.72050977 0.72302903 -10.28734009 -0.17256183 0 0 Z " fill="#0F2649" transform="translate(66.375,23.875)"/>
<path d="M0 0 C3.50047654 -0.08147661 6.99902739 -0.14073128 10.5 -0.1875 C11.97339844 -0.22520508 11.97339844 -0.22520508 13.4765625 -0.26367188 C22.09385047 -0.34984475 28.8864728 1.15698076 35.39453125 7.12890625 C41.26549446 13.97122104 43.09707395 21.80657984 43.15771484 30.63476562 C43.16797699 31.71608765 43.17823914 32.79740967 43.18881226 33.91149902 C43.19611359 35.06476685 43.20341492 36.21803467 43.2109375 37.40625 C43.23899418 39.86589221 43.26765855 42.32552755 43.296875 44.78515625 C43.33818991 48.64957573 43.37509426 52.51386521 43.40136719 56.37841797 C43.42896617 60.11712819 43.47482245 63.85526189 43.5234375 67.59375 C43.52669037 68.74701782 43.52994324 69.90028564 43.53329468 71.08850098 C43.63272546 78.97114766 43.63272546 78.97114766 47 86 C51.88257886 89.25505257 55.97109355 89.66024301 62 91 C62 97.93 62 104.86 62 112 C58.74479167 112.65104167 55.48958333 113.30208333 52.234375 113.953125 C48.73196604 115.08675495 47.25944022 116.13804238 45 119 C43.76368447 122.7089466 43.94128717 126.0797912 44 129.9375 C44.05513584 139.36482445 43.94534249 148.78759067 43.73754883 158.21243286 C43.70445677 159.80761114 43.67637668 161.40290209 43.65356445 162.9982605 C43.32906122 184.99572479 43.32906122 184.99572479 36 194 C29.08631936 200.60640594 23.52266949 202.35237364 14.20898438 202.26367188 C13.17064453 202.23853516 12.13230469 202.21339844 11.0625 202.1875 C9.99708984 202.17396484 8.93167969 202.16042969 7.83398438 202.14648438 C5.22212412 202.11134724 2.61133366 202.06215184 0 202 C-0.02683987 199.02077407 -0.04676037 196.04178705 -0.0625 193.0625 C-0.07506836 191.78729492 -0.07506836 191.78729492 -0.08789062 190.48632812 C-0.09111328 189.67744141 -0.09433594 188.86855469 -0.09765625 188.03515625 C-0.10289307 187.2862915 -0.10812988 186.53742676 -0.11352539 185.76586914 C0 184 0 184 1 183 C2.58201311 182.89453246 4.16583354 182.81561636 5.75 182.75 C9.73560237 182.40218635 10.8043913 182.15568856 14.0625 179.5625 C16.7832827 175.96404546 17.12961897 174.22738935 17.17358398 169.77514648 C17.18707382 168.68318466 17.20056366 167.59122284 17.21446228 166.46617126 C17.22490067 165.27979568 17.23533905 164.0934201 17.24609375 162.87109375 C17.27905026 160.3665332 17.31226159 157.86197599 17.34570312 155.35742188 C17.39299522 151.40326386 17.43738418 147.44911762 17.47680664 143.49487305 C17.51670915 139.68263041 17.56823018 135.87067567 17.62109375 132.05859375 C17.6295079 130.88638779 17.63792206 129.71418182 17.64659119 128.50645447 C17.90922032 110.92587783 17.90922032 110.92587783 25 104 C27.8125 102.125 27.8125 102.125 30 101 C29.0925 100.46375 28.185 99.9275 27.25 99.375 C21.74614944 95.64951625 19.72235555 90.93421844 18.40377808 84.64535522 C17.64802832 79.69405477 17.70118514 74.73745654 17.69140625 69.73828125 C17.66626582 67.37955461 17.64086753 65.02083071 17.61523438 62.66210938 C17.58642705 58.97551065 17.56238072 55.28895908 17.54370117 51.60229492 C17.52205668 48.02239044 17.48264322 44.4430058 17.44140625 40.86328125 C17.44129044 39.76317215 17.44117462 38.66306305 17.4410553 37.52961731 C17.36911692 31.96602944 17.22332632 27.76267912 14 23 C9.44888498 19.1181666 6.58167909 19.73129768 0 19 C0 12.73 0 6.46 0 0 Z " fill="#102649" transform="translate(214,24)"/>
<path d="M0 0 C0.76166977 0.00222061 1.52333954 0.00444122 2.30809021 0.00672913 C3.18098694 0.00684998 4.05388367 0.00697083 4.95323181 0.00709534 C6.33822876 0.01476929 6.33822876 0.01476929 7.75120544 0.02259827 C8.5955011 0.02360535 9.43979675 0.02461243 10.30967712 0.02565002 C13.47639821 0.03089881 16.64310001 0.04485995 19.80979919 0.05775452 C26.88417419 0.07837952 33.95854919 0.09900452 41.24729919 0.12025452 C41.24729919 14.31025452 41.24729919 28.50025452 41.24729919 43.12025452 C26.72729919 43.12025452 12.20729919 43.12025452 -2.75270081 43.12025452 C-2.77332581 36.21087952 -2.79395081 29.30150452 -2.81520081 22.18275452 C-2.82430481 19.99916321 -2.83340881 17.8155719 -2.8427887 15.56581116 C-2.84570779 13.84567832 -2.84825636 12.1255448 -2.85035706 10.40541077 C-2.85547302 9.50367126 -2.86058899 8.60193176 -2.86585999 7.67286682 C-2.86616963 5.48833707 -2.8151595 3.30389122 -2.75270081 1.12025452 C-1.75270081 0.12025452 -1.75270081 0.12025452 0 0 Z " fill="#2CC39C" transform="translate(77.75270080566406,113.87974548339844)"/>
<path d="M0 0 C0.66209473 -0.00095673 1.32418945 -0.00191345 2.00634766 -0.00289917 C3.40852961 -0.00358076 4.8107147 -0.00172792 6.21289062 0.00244141 C8.36595713 0.00779004 10.51881502 0.0024958 12.671875 -0.00390625 C14.03125046 -0.00324546 15.3906258 -0.00196429 16.75 0 C18.61785156 0.00169189 18.61785156 0.00169189 20.5234375 0.00341797 C23.375 0.1328125 23.375 0.1328125 24.375 1.1328125 C24.46290975 3.42432667 24.48194038 5.71853774 24.47265625 8.01171875 C24.47015869 9.26799072 24.46766113 10.5242627 24.46508789 11.81860352 C24.45598389 13.42791748 24.44687988 15.03723145 24.4375 16.6953125 C24.416875 21.7896875 24.39625 26.8840625 24.375 32.1328125 C13.815 32.1328125 3.255 32.1328125 -7.625 32.1328125 C-7.645625 27.0384375 -7.66625 21.9440625 -7.6875 16.6953125 C-7.696604 15.08599854 -7.70570801 13.47668457 -7.71508789 11.81860352 C-7.71758545 10.56233154 -7.72008301 9.30605957 -7.72265625 8.01171875 C-7.72789307 6.7182251 -7.73312988 5.42473145 -7.73852539 4.09204102 C-7.53146656 -1.30529246 -4.78558557 0.00433477 0 0 Z " fill="#6D33DF" transform="translate(162.625,111.8671875)"/>
<path d="M0 0 C9.24 0 18.48 0 28 0 C28 9.24 28 18.48 28 28 C18.76 28 9.52 28 0 28 C0 18.76 0 9.52 0 0 Z " fill="#06CBFD" transform="translate(97,48)"/>
<path d="M0 0 C8.58 0 17.16 0 26 0 C26 8.58 26 17.16 26 26 C17.42 26 8.84 26 0 26 C0 17.42 0 8.84 0 0 Z " fill="#FE9E07" transform="translate(136,176)"/>
<path d="M0 0 C0.87454834 0.00523682 1.74909668 0.01047363 2.65014648 0.01586914 C3.50036377 0.0183667 4.35058105 0.02086426 5.2265625 0.0234375 C6.85742798 0.03709351 6.85742798 0.03709351 8.52124023 0.05102539 C11.96561523 0.07165039 15.40999023 0.09227539 18.95874023 0.11352539 C18.95874023 7.37352539 18.95874023 14.63352539 18.95874023 22.11352539 C13.79217773 22.14446289 13.79217773 22.14446289 8.52124023 22.17602539 C7.43399658 22.18512939 6.34675293 22.1942334 5.2265625 22.20361328 C4.37634521 22.20611084 3.52612793 22.2086084 2.65014648 22.21118164 C1.33832397 22.21903687 1.33832397 22.21903687 0 22.22705078 C-2.04125977 22.11352539 -2.04125977 22.11352539 -3.04125977 21.11352539 C-3.14006774 19.63699875 -3.17205222 18.15585303 -3.17407227 16.67602539 C-3.17536133 15.78141602 -3.17665039 14.88680664 -3.17797852 13.96508789 C-3.17217773 12.55356445 -3.17217773 12.55356445 -3.16625977 11.11352539 C-3.17012695 10.17250977 -3.17399414 9.23149414 -3.17797852 8.26196289 C-3.17668945 7.36735352 -3.17540039 6.47274414 -3.17407227 5.55102539 C-3.17238037 4.3115918 -3.17238037 4.3115918 -3.1706543 3.04711914 C-2.99030581 0.35210019 -2.6965947 0.14997208 0 0 Z " fill="#172D4F" transform="translate(186.041259765625,179.886474609375)"/>
<path d="M0 0 C3.6815625 -0.0309375 3.6815625 -0.0309375 7.4375 -0.0625 C8.21150146 -0.071604 8.98550293 -0.08070801 9.78295898 -0.09008789 C11.52221717 -0.09724913 13.26145304 -0.05024702 15 0 C16 1 16 1 16.09765625 4.37890625 C16.09191424 5.77347492 16.07890228 7.16801597 16.0625 8.5625 C16.041875 11.016875 16.02125 13.47125 16 16 C10.72 16 5.44 16 0 16 C0 10.72 0 5.44 0 0 Z " fill="#E81319" transform="translate(111,186)"/>
<path d="M0 0 C4.62 0 9.24 0 14 0 C14 4.95 14 9.9 14 15 C3.94140625 15.09765625 3.94140625 15.09765625 1 15 C0 14 0 14 -0.09765625 10.83984375 C-0.04882812 5.41992188 -0.04882812 5.41992188 0 0 Z " fill="#E8161C" transform="translate(196,62)"/>
<path d="M0 0 C0 4.62 0 9.24 0 14 C-4.62 14 -9.24 14 -14 14 C-14 9.38 -14 4.76 -14 0 C-3.375 -1.125 -3.375 -1.125 0 0 Z " fill="#156BA0" transform="translate(103,188)"/>
<path d="M0 0 C0.66209473 -0.00095673 1.32418945 -0.00191345 2.00634766 -0.00289917 C3.40852961 -0.00358076 4.8107147 -0.00172792 6.21289062 0.00244141 C8.36595713 0.00779004 10.51881502 0.0024958 12.671875 -0.00390625 C14.03125046 -0.00324546 15.3906258 -0.00196429 16.75 0 C18.61785156 0.00169189 18.61785156 0.00169189 20.5234375 0.00341797 C23.375 0.1328125 23.375 0.1328125 24.375 1.1328125 C24.46290975 3.42432667 24.48194038 5.71853774 24.47265625 8.01171875 C24.4712413 8.6983812 24.46982635 9.38504364 24.46836853 10.09251404 C24.46275479 12.29349051 24.45020007 14.49436659 24.4375 16.6953125 C24.43248676 18.18424333 24.42792355 19.67317574 24.42382812 21.16210938 C24.41278093 24.81904325 24.39550713 28.47591808 24.375 32.1328125 C23.715 31.8028125 23.055 31.4728125 22.375 31.1328125 C22.375 21.5628125 22.375 11.9928125 22.375 2.1328125 C12.805 2.1328125 3.235 2.1328125 -6.625 2.1328125 C-6.625 12.0328125 -6.625 21.9328125 -6.625 32.1328125 C-6.955 32.1328125 -7.285 32.1328125 -7.625 32.1328125 C-7.64965504 27.73625077 -7.66783842 23.3397253 -7.67993164 18.94311523 C-7.68497121 17.44636332 -7.69180287 15.94961634 -7.70043945 14.45288086 C-7.71252159 12.30581443 -7.71823191 10.15881288 -7.72265625 8.01171875 C-7.72789307 6.7182251 -7.73312988 5.42473145 -7.73852539 4.09204102 C-7.53146656 -1.30529246 -4.78558557 0.00433477 0 0 Z " fill="#8351E3" transform="translate(162.625,111.8671875)"/>
<path d="M0 0 C3.63 0 7.26 0 11 0 C11 3.63 11 7.26 11 11 C7.37 11 3.74 11 0 11 C0 7.37 0 3.74 0 0 Z " fill="#C2CF32" transform="translate(126,94)"/>
<path d="M0 0 C3.46679688 0.04882812 3.46679688 0.04882812 6.93359375 0.09765625 C6.93359375 3.06765625 6.93359375 6.03765625 6.93359375 9.09765625 C3.63359375 9.09765625 0.33359375 9.09765625 -3.06640625 9.09765625 C-3.1640625 2.9453125 -3.1640625 2.9453125 -3.06640625 1.09765625 C-2.06640625 0.09765625 -2.06640625 0.09765625 0 0 Z " fill="#F27233" transform="translate(200.06640625,151.90234375)"/>
<path d="M0 0 C6.15234375 -0.09765625 6.15234375 -0.09765625 8 0 C9 1 9 1 9.09765625 2.84765625 C9.04882812 5.92382812 9.04882812 5.92382812 9 9 C6.03 9 3.06 9 0 9 C0 6.03 0 3.06 0 0 Z " fill="#7B8085" transform="translate(159,65)"/>
<path d="M0 0 C2.31 0 4.62 0 7 0 C7 2.31 7 4.62 7 7 C4.69 7 2.38 7 0 7 C0 4.69 0 2.38 0 0 Z " fill="#357A89" transform="translate(169,194)"/>
<path d="M0 0 C0.33 0.99 0.66 1.98 1 3 C-3.11111111 8.55555556 -3.11111111 8.55555556 -6 10 C-8.3329866 10.04022391 -10.66706666 10.04320247 -13 10 C-13.2475 10.639375 -13.495 11.27875 -13.75 11.9375 C-15 14 -15 14 -17.078125 14.62890625 C-18.02945312 14.81259766 -18.02945312 14.81259766 -19 15 C-17.17402143 12.46176029 -15.32907657 10.09563837 -13 8 C-9.9375 7.8125 -9.9375 7.8125 -7 8 C-3.55528439 5.80790825 -1.49849433 3.81434921 0 0 Z " fill="#FDFDFD" transform="translate(19,0)"/>
<path d="M0 0 C0.66 0.33 1.32 0.66 2 1 C-0.64 3.64 -3.28 6.28 -6 9 C-6.66 8.67 -7.32 8.34 -8 8 C-3.375 2.25 -3.375 2.25 0 0 Z " fill="#3A4A68" transform="translate(47,27)"/>
</svg>
